<svg width="2525.152" height="1235.531" xmlns="http://www.w3.org/2000/svg" version="1.1" enable-background="new 0 0 2632.152 1583.531" xml:space="preserve">
 <g>
  <path d="m2519.81758,922.80985l0,-2.618l-37.428,0l0,2.812l-5.624,0l0,-14.157l-13.284,0l-0.146,-35.343l-19.781,-1.406l-17.017,0l0,-8.921l3.006,0l0,-6.642l-27.635,-2.23l-36.119,2.667l-25.938,-3.2l-73.354,0l0,-9.842l-22.835,0l0,-11.539l-22.156,0l0,-3.2l-11.442,0l0,4.218l-12.993,0l0,2.86l-12.121,0l0,1.648l-12.945,0l0,2.667l-5.624,0l0,7.272l-9.26,0l0,-1.551l1.552,0l0,-2.424l-2.036,0l0,-3.248l2.23,0l0,-2.86l-2.375,0l0,-3.2l2.375,0l0,-2.57l-2.23,0l0,-3.491l1.891,0l0,-2.909l-6.351,0l0,-10.424l2.909,0l0,-2.957l-2.812,0l0,-2.133l-3.975,0l0,-1.164l-5.866,0l0,2.473l-6.545,0l0,-8.872l-18.859,0l0,1.697l-4.412,0l0,-3.054l-11.345,0l0,4.994l-2.182,0l0,9.842l-21.574,1.454l0,4.945l9.939,0l0,27.635l-7.66,0l0,-2.182l-17.938,0l0,4.121l-19.393,0.824l0,11.539l-28.217,1.648l1.309,112.333l-14.108,0l0,4.606l-4.897,0l0,8.921l-33.21,3.782l0,-6.448l-19.732,0l0,2.085l-8.581,0l0,5.527l-3.685,0l0,-2.327l-3.879,-2.182l-6.303,0l0,1.794l-13.042,0l0,4.848l-65.742,2.521l0,1.842l-1.794,0l0,1.794l-3.151,0l0,17.308l-3.588,0l0,-8.339l-3.345,0l0,-4.897l-29.671,0l0,-6.303l-4.945,0l0,-1.406l-5.285,0l0,-2.085l3.588,0l0,-1.697l-3.685,0l0,-1.26l3.491,0l0,-2.133l-3.782,0l0,-1.939l4.024,0l0,-1.988l-3.878,0l0,-1.018l4.412,0l0,-1.551l-4.17,0l0,-1.891l3.685,0l0,-1.939l-3.685,0l0,-1.6l3.636,0l0,-1.988l-3.782,0l0,-1.988l3.442,0l0,-1.115l-3.636,0l0,-2.085l4.024,0l0,-1.648l-3.83,0l0,-1.697l3.879,0l0,-1.309l-3.927,0l0,-1.697l3.685,0l0,-2.279l-3.588,0l0,-1.067l3.83,0l0,-2.133l-3.927,0l0,-1.6l3.83,0l0,-1.697l-3.782,0l0,-1.939l3.636,0l0,-1.697l-3.733,0l0,-1.939l3.054,0l0,-1.697l-3.054,0l0,-12.315l-18.714,0l-0.945,-100.212l-44.216,2.182l0.073,-17.526l-30.616,0l0,-9.672l-4.145,0l0,-4.8l-5.163,0l0,-10.472l-8.072,0l0,-18.399l-7.272,0l0,-18.545l-8.945,0l0,-9.381l-6.981,0l0,-15.417l5.381,0l0,-10.908l-6.182,0l0,-10.036l-3.709,0l-2.982,5.745l0,5.527l-2.909,0l0,9.527l3.2,0l0,15.417l-5.163,1.382l0,4.436l-11.636,0l-39.707,5.527l-2.036,71.632l-16.581,0l0,-6.327l-9.454,0l0,5.309l-7.127,0l0,-3.2l-3.345,0l0,3.127l-15.563,-1.454l-0.582,-64.724l-28.362,-1.236l-5.6,-8.872l0,-54.76l-0.945,-2.836l-1.091,2.763l0,56.215l-7.127,7.127l-25.671,4.291l0,-27.126l-12.072,-6.254l-23.126,0l0,3.2l-10.69,1.673l0,-2.327l-2.691,0l0.073,2.327l-4.945,2.691l-9.381,0l1.164,172.79l-3.782,0l-1.745,-138.174l-73.887,-4.363l0,-1.236l1.6,0l0,-0.509l-3.054,0l0,-1.6l3.563,0l0,-1.745l-10.836,0l0,1.891l4.436,0l0,2.545l-19.708,-0.364l-22.181,4.582l0,-49.67l3.636,0l0,-19.853l-3.563,0l0,-7.054l-1.454,0l0,6.545l-1.382,0l0,-5.163l-2.618,0l0,4.218l-19.781,0l0,-2.4l-4.509,-1.164l0,-62.033l-2.109,0l0,61.451l-5.309,0l0,-79.486l-2.327,0l0,78.905l-13.308,0l0,-72.163c0.6,-0.405 0.994,-1.091 0.994,-1.869c0,-1.245 -1.009,-2.254 -2.255,-2.254c-1.245,0 -2.254,1.009 -2.254,2.254c0,0.798 0.417,1.495 1.042,1.896l0,71.991l-6.109,0l0,-6.836l-6.254,0l0,7.127l-2.764,0l0,-5.309l-4.363,0l0,5.745l-13.526,4.8l-10.399,0l0,-11.49l-1.454,0l0,16.29l-2.836,0l0,17.163l2.327,2.327l0,107.776l-14.763,2.836l0,65.669l-35.562,0l0.146,4.509l-11.708,1.236l-0.218,29.162l-12.727,0.582l0,-41.525l-1.382,0l0,-2.618l-12.872,0l0,-11.127l-20.581,0l-4.582,-2.763l-15.926,0l0,6.69l-7.563,0.582l0,6.836l-2.691,0l-16.945,2.763l0,33.598l-20.217,0l0,-14.69l-14.69,0l0,-6.4l-24.799,0l0,1.527l-2.691,0l0,3.854l-2.618,0l-16.944,2.982l0,9.381l-46.252,0l0,32.725l-6.254,0.073l0.873,-86.831l-17.454,0l0,-10.909l-4.291,0l-5.818,-4.291l-18.472,0l0,14.399l-5.091,0l-2.836,0.582l-0.145,-78.977l-5.672,-7.709l-30.18,9.818l-13.017,-1.309l0,-9.018l7.709,0l0,-2.4l-24.363,0l0,5.091l1.673,0l0,-3.127l13.163,0l0,12.363l-19.417,0l-29.889,10.399l0,31.635l-34.69,0l0,-2.473l-5.236,0l0,5.6l-2.4,0l0,11.49l-12.799,0l0,13.381l-7.418,0l-21.599,7.927l1.091,-99.631l-8,-19.635l-3.563,0l0,-11.276l-35.198,0l-4.582,-147.337l-1.891,-157.518c21.235,-0.655 22.035,-6.618 22.035,-6.618c12.072,-5.963 0.582,-18.835 0.582,-18.835l6.69,-6.472l0,-13.672c1.745,-2.691 0.945,-7.781 0.945,-7.781l-5.6,-4l-7.563,-9.309c0,0 0.509,-7.781 0,-13.817c-0.509,-6.036 -17.454,-6.981 -17.454,-6.981l0,-8.872l2.182,0l0.073,-13.381l-3.491,-3.927l-4,0l0,-119.849c3.491,-1.891 2.618,-5.091 2.618,-5.091l1.964,0c0,0 1.018,-4.945 -0.218,-8.145c-1.236,-3.2 -7.418,-8.945 -7.418,-8.945l0,-81.741l-1.964,0l0,-33.67l-3.345,0l0,-48.143l-6.472,0l0,47.997l-2.982,-0.145l-0.436,34.689l-2.036,1.382l-0.218,80.316c-0.343,0.293 -1.4,1.398 -4.291,4.697c-5.672,6.472 -2.182,9.018 -2.182,9.018c-0.727,2.763 1.527,3.563 1.527,3.563c0.291,3.273 3.491,3.345 3.491,3.345l0,98.176l-2.109,0l0,5.018l1.527,1.527l0,9.309l-2.909,0l0,5.963l2.909,0l0,1.891l-6.69,0l0.582,13.527l2.327,1.164l0,10.036c0,0 -2.036,0.145 -8,0.582c-5.963,0.436 -12.217,5.236 -12.217,5.236l1.018,14.836l-7.127,8.436l-5.091,2.618c-4.218,5.236 0.873,11.345 0.873,11.345l-0.727,7.854c-3.054,8.145 6.545,10.327 6.545,10.327s-8.872,9.163 -2.327,17.89s24.58,8.872 24.58,8.872l-4.8,165.809l-8.145,174.826l-14.543,197.32l-10.278,0l0,-16.29l-0.873,0l-0.291,15.999l-23.174,-0.582l-7.66,1.164l-0.485,4.945l-8.824,-0.388l-0.873,-5.721l-1.454,6.109l-7.078,-0.582l-2.327,-5.139l-1.067,6.497l-9.696,4.557l0,-11.151l-26.471,0l0,-6.108l-7.854,0l0,-2.521l-6.691,0l0,-2.23l-10.715,0l0,-55.706l-1.6,0l-14.545,-21.962c0,0 -14.981,22.399 -15.999,23.853c-1.018,1.454 -42.325,0.291 -42.325,0.291l-12.799,8.145l0,3.491c-21.381,-15.563 -79.705,-23.271 -79.705,-23.271l0,-48.724l-19.926,0l-7.127,4.073l0.145,4.363l-9.309,0l-1.745,-39.561l-1.454,-0.145l-0.145,27.344l-8.436,12.363l-5.672,-0.291l-4.363,3.054l0,7.272l-5.236,0l0,28.071c-56.142,0.873 -125.956,36.362 -125.956,36.362l0,-5.818l-19.49,0l0,7.418l-2.036,0l0,-6.545l-5.672,0l0,6.691l-5.092,0l-9.599,8.29l-0.291,13.672l-22.544,14.981l8.83343,267.10798c846.57933,0 1693.15865,-0.00001 2539.73798,-0.00001l11.42859,-324.99797l-30.544,-1.503z" id="svg_1"/>
 </g>
</svg>
